<?xml version="1.0" encoding="UTF-8" standalone="no"?>
<!-- Created with Inkscape (http://www.inkscape.org/) -->

<svg
   xmlns:dc="http://purl.org/dc/elements/1.1/"
   xmlns:cc="http://creativecommons.org/ns#"
   xmlns:rdf="http://www.w3.org/1999/02/22-rdf-syntax-ns#"
   xmlns:svg="http://www.w3.org/2000/svg"
   xmlns="http://www.w3.org/2000/svg"
   xmlns:sodipodi="http://sodipodi.sourceforge.net/DTD/sodipodi-0.dtd"
   xmlns:inkscape="http://www.inkscape.org/namespaces/inkscape"
   width="744.09448819"
   height="1052.3622047"
   id="svg2"
   version="1.1"
   inkscape:version="0.48.2 r9819"
   sodipodi:docname="drawing.svg">
  <defs
     id="defs4" />
  <sodipodi:namedview
     id="base"
     pagecolor="#ffffff"
     bordercolor="#666666"
     borderopacity="1.0"
     inkscape:pageopacity="0.0"
     inkscape:pageshadow="2"
     inkscape:zoom="4"
     inkscape:cx="343.10084"
     inkscape:cy="431.74133"
     inkscape:document-units="px"
     inkscape:current-layer="layer1"
     showgrid="false"
     inkscape:snap-bbox="true"
     inkscape:object-nodes="false"
     showguides="true"
     inkscape:guide-bbox="true"
     inkscape:snap-midpoints="true"
     inkscape:window-width="1920"
     inkscape:window-height="945"
     inkscape:window-x="0"
     inkscape:window-y="0"
     inkscape:window-maximized="1"
     inkscape:snap-global="true"
     inkscape:snap-nodes="true">
    <sodipodi:guide
       orientation="0,1"
       position="147.22973,525.02679"
       id="guide3134" />
    <sodipodi:guide
       orientation="0,1"
       position="49.642857,395.35714"
       id="guide3136" />
    <sodipodi:guide
       orientation="1,0"
       position="224.75894,417.193"
       id="guide3138" />
    <sodipodi:guide
       orientation="1,0"
       position="350.01786,495.73236"
       id="guide3140" />
    <sodipodi:guide
       orientation="0,1"
       position="275.35714,378.21429"
       id="guide3149" />
    <sodipodi:guide
       orientation="0,1"
       position="323.92857,543.92857"
       id="guide3151" />
    <sodipodi:guide
       orientation="1,0"
       position="204.55589,488.91383"
       id="guide3153" />
    <sodipodi:guide
       orientation="1,0"
       position="369.71583,586.39355"
       id="guide3155" />
    <sodipodi:guide
       orientation="1,0"
       position="287.3884,598.01031"
       id="guide3161" />
    <sodipodi:guide
       orientation="0,1"
       position="281.93418,459.84923"
       id="guide3181" />
  </sodipodi:namedview>
  <metadata
     id="metadata7">
    <rdf:RDF>
      <cc:Work
         rdf:about="">
        <dc:format>image/svg+xml</dc:format>
        <dc:type
           rdf:resource="http://purl.org/dc/dcmitype/StillImage" />
        <dc:title />
      </cc:Work>
    </rdf:RDF>
  </metadata>
  <g
     inkscape:label="Layer 1"
     inkscape:groupmode="layer"
     id="layer1">
    <g
       id="g3142"
       transform="translate(422.73579,1.7152026)">
      <rect
         y="508.39505"
         x="205.56604"
         height="165.66502"
         width="165.66502"
         id="rect2985"
         style="fill:#000000;fill-rule:evenodd;stroke:none" />
      <path
         sodipodi:nodetypes="ccccccccc"
         inkscape:connector-curvature="0"
         id="rect2987"
         d="m 288.02627,528.70323 -22.44911,27.53615 10.01075,0 0,34.28312 12.43836,0 12.43836,0 0,-34.28312 10.01075,0 z"
         style="color:#000000;fill:#ffffff;fill-opacity:1;fill-rule:nonzero;stroke:none;stroke-width:1;marker:none;visibility:visible;display:inline;overflow:visible;enable-background:accumulate" />
      <path
         inkscape:transform-center-x="-30.995795"
         sodipodi:nodetypes="ccccccccc"
         inkscape:connector-curvature="0"
         id="rect2987-3"
         d="m 350.01786,590.5225 -27.61291,-22.38671 0,9.98292 -34.37868,0 0,12.40379 0,12.40379 34.37868,0 0,9.98292 z"
         style="color:#000000;fill:#ffffff;fill-opacity:1;fill-rule:nonzero;stroke:none;stroke-width:1;marker:none;visibility:visible;display:inline;overflow:visible;enable-background:accumulate" />
      <path
         sodipodi:nodetypes="ccccccccc"
         inkscape:connector-curvature="0"
         id="rect2987-6"
         d="m 288.02627,652.34177 22.44911,-27.53615 -10.01075,0 0,-34.28312 -12.43836,0 -12.43836,0 0,34.28312 -10.01075,0 z"
         style="color:#000000;fill:#ffffff;fill-opacity:1;fill-rule:nonzero;stroke:none;stroke-width:1;marker:none;visibility:visible;display:inline;overflow:visible;enable-background:accumulate" />
      <path
         inkscape:transform-center-x="30.995795"
         sodipodi:nodetypes="ccccccccc"
         inkscape:connector-curvature="0"
         id="rect2987-3-0"
         d="m 226.03468,590.5225 27.61291,22.38671 0,-9.98292 34.37868,0 0,-12.40379 0,-12.40379 -34.37868,0 0,-9.98292 z"
         style="color:#000000;fill:#ffffff;fill-opacity:1;fill-rule:nonzero;stroke:none;stroke-width:1;marker:none;visibility:visible;display:inline;overflow:visible;enable-background:accumulate" />
    </g>
    <g
       id="g3127"
       transform="translate(216.67772,0.50880006)">
      <rect
         y="508.43362"
         x="204.55589"
         height="165.71428"
         width="165.15994"
         id="rect3157"
         style="color:#000000;fill:#000000;fill-opacity:1;fill-rule:nonzero;stroke:none;stroke-width:1;marker:none;visibility:visible;display:inline;overflow:visible;enable-background:accumulate" />
      <path
         inkscape:connector-curvature="0"
         id="path3069"
         d="m 257.50446,527.5 0,32.375 c 0,14.69837 9.04918,27.07724 21.42845,31.03125 l 0,2.6875 c -12.3904,3.94644 -21.42845,16.3243 -21.42845,31.03125 l 0,32.375 29.86678,0 29.79674,0 0,-29.875 c 0.0585,-0.82737 0.10504,-1.6564 0.10504,-2.5 0,-14.47375 -8.773,-26.69722 -20.86822,-30.84375 l 0,-3.0625 c 12.09522,-4.14653 20.90324,-16.37 20.90324,-30.84375 0,-0.8436 -0.0816,-1.67263 -0.14006,-2.5 l 0,-29.875 -29.79674,0 -29.86678,0 z"
         style="color:#000000;fill:#ffffff;fill-opacity:1;fill-rule:nonzero;stroke:none;stroke-width:1;marker:none;visibility:visible;display:inline;overflow:visible;enable-background:accumulate" />
      <path
         sodipodi:nodetypes="csscssc"
         inkscape:connector-curvature="0"
         id="path3113"
         d="m 268.67597,564.40712 c 0,0 -0.25814,17.9048 18.05011,18.1525 18.30826,0.24769 19.08214,-13.44621 19.34,-17.40939 0.25787,-3.96319 0.25787,-9.41256 0.25787,-9.41256 0,0 -5.99531,3.59163 -10.92694,5.20168 -4.93162,1.61004 -11.63606,-1.7339 -15.63293,-1.7339 -10.11607,0 -11.08811,5.20167 -11.08811,5.20167 z"
         style="fill:#000000;stroke:#000000;stroke-width:0.70764327px;stroke-linecap:butt;stroke-linejoin:miter;stroke-opacity:1" />
      <path
         sodipodi:nodetypes="ccccc"
         inkscape:connector-curvature="0"
         id="rect3115"
         d="m 268.90477,631.80488 c 16.59165,7.09041 34.37056,-7.29667 37.19046,0 l 0,18.35056 -37.19046,0 z"
         style="color:#000000;fill:#000000;fill-opacity:1;fill-rule:nonzero;stroke:none;stroke-width:1;marker:none;visibility:visible;display:inline;overflow:visible;enable-background:accumulate" />
    </g>
    <g
       id="g3015"
       transform="translate(-197.6834,0)">
      <rect
         y="508.43362"
         x="204.55589"
         height="165.71428"
         width="165.15994"
         id="rect3133"
         style="color:#000000;fill:#000000;fill-opacity:1;fill-rule:nonzero;stroke:none;stroke-width:1;marker:none;visibility:visible;display:inline;overflow:visible;enable-background:accumulate" />
      <path
         id="rect3135"
         d="m 341.65625,527.34375 -21.34375,12.625 -95.3125,0 0,0.25 -0.25,0 0,83.84375 0.25,0 0,0.125 95.46875,0 12.40625,-72.5625 17.15625,-10.15625 -8.375,-14.125 z m -103.75,30.8125 79.78125,0 -2.78125,16.40625 -77,0 0,-16.40625 z M 237.75,592.25 l 74.25,0 -2.78125,16.40625 -71.46875,0 0,-16.40625 z m 2.40625,33.9375 c -8.50785,0 -15.40625,6.8984 -15.40625,15.40625 0,8.50785 6.8984,15.40625 15.40625,15.40625 8.50785,0 15.40625,-6.8984 15.40625,-15.40625 0,-8.50785 -6.8984,-15.40625 -15.40625,-15.40625 z m 74.75,0 c -8.50785,0 -15.40625,6.8984 -15.40625,15.40625 0,8.50785 6.8984,15.40625 15.40625,15.40625 8.50785,0 15.40625,-6.8984 15.40625,-15.40625 0,-8.50785 -6.8984,-15.40625 -15.40625,-15.40625 z"
         style="color:#000000;fill:#ffffff;fill-opacity:1;fill-rule:nonzero;stroke:none;stroke-width:1;marker:none;visibility:visible;display:inline;overflow:visible;enable-background:accumulate"
         inkscape:connector-curvature="0" />
    </g>
    <rect
       style="color:#000000;fill:#000000;fill-opacity:1;fill-rule:nonzero;stroke:none;stroke-width:1;marker:none;visibility:visible;display:inline;overflow:visible;enable-background:accumulate"
       id="rect3021"
       width="165.15994"
       height="165.71428"
       x="204.55589"
       y="508.43362" />
    <rect
       style="color:#000000;fill:#ffffff;fill-opacity:1;fill-rule:nonzero;stroke:none;stroke-width:1;marker:none;visibility:visible;display:inline;overflow:visible;enable-background:accumulate"
       id="rect3023"
       width="5.2603402"
       height="64.767342"
       x="284.75824"
       y="592.23773" />
    <rect
       style="color:#000000;fill:#ffffff;fill-opacity:1;fill-rule:nonzero;stroke:none;stroke-width:1;marker:none;visibility:visible;display:inline;overflow:visible;enable-background:accumulate"
       id="rect3028"
       width="51"
       height="23"
       x="261.8884"
       y="581.01294" />
    <rect
       style="color:#000000;fill:#ffffff;fill-opacity:1;fill-rule:nonzero;stroke:none;stroke-width:1;marker:none;visibility:visible;display:inline;overflow:visible;enable-background:accumulate"
       id="rect3254"
       width="10"
       height="35.75"
       x="246"
       y="574.63794"
       ry="5" />
  </g>
</svg>
