<?xml version="1.0" encoding="utf-8"?>
<!-- Generator: Adobe Illustrator 17.0.0, SVG Export Plug-In . SVG Version: 6.00 Build 0)  -->
<!DOCTYPE svg PUBLIC "-//W3C//DTD SVG 1.1//EN" "http://www.w3.org/Graphics/SVG/1.1/DTD/svg11.dtd">
<svg version="1.1"
	 id="svg2" sodipodi:docname="drawing.svg" inkscape:version="0.48.2 r9819" xmlns:dc="http://purl.org/dc/elements/1.1/" xmlns:cc="http://creativecommons.org/ns#" xmlns:rdf="http://www.w3.org/1999/02/22-rdf-syntax-ns#" xmlns:svg="http://www.w3.org/2000/svg" xmlns:sodipodi="http://sodipodi.sourceforge.net/DTD/sodipodi-0.dtd" xmlns:inkscape="http://www.inkscape.org/namespaces/inkscape"
	 xmlns="http://www.w3.org/2000/svg" xmlns:xlink="http://www.w3.org/1999/xlink" x="0px" y="0px" width="165.16px"
	 height="165.714px" viewBox="464.103 618.718 165.16 165.714" enable-background="new 464.103 618.718 165.16 165.714"
	 xml:space="preserve">
<g id="layer1" inkscape:groupmode="layer" inkscape:label="Layer 1">
	<g id="g3142" transform="translate(422.73579,1.7152026)">
		<rect id="rect2985" x="258.063" y="617.028" width="165.665" height="165.665"/>
		<path id="rect2987" inkscape:connector-curvature="0" sodipodi:nodetypes="ccccccccc" fill="#FFFFFF" d="M340.523,637.336
			l-22.449,27.536h10.011v34.283h12.438h12.438v-34.283h10.011L340.523,637.336z"/>
		
			<path id="rect2987-3" inkscape:transform-center-x="-30.995795" inkscape:connector-curvature="0" sodipodi:nodetypes="ccccccccc" fill="#FFFFFF" d="
			M402.515,699.155l-27.613-22.387v9.983h-34.379v12.404v12.404h34.379v9.983L402.515,699.155z"/>
		<path id="rect2987-6" inkscape:connector-curvature="0" sodipodi:nodetypes="ccccccccc" fill="#FFFFFF" d="M340.523,760.974
			l22.449-27.536h-10.011v-34.283h-12.438h-12.438v34.283h-10.011L340.523,760.974z"/>
		
			<path id="rect2987-3-0" inkscape:transform-center-x="30.995795" inkscape:connector-curvature="0" sodipodi:nodetypes="ccccccccc" fill="#FFFFFF" d="
			M278.532,699.155l27.613,22.387v-9.983h34.379v-12.404v-12.404h-34.379v-9.983L278.532,699.155z"/>
	</g>
	<g id="g3127" transform="translate(216.67772,0.50880006)">
		<rect id="rect3157" x="464.103" y="802.718" width="165.16" height="165.714"/>
		<path id="path3069" inkscape:connector-curvature="0" fill="#FFFFFF" d="M517.052,821.785v32.375
			c0,14.698,9.049,27.077,21.428,31.031v2.688c-12.39,3.946-21.428,16.324-21.428,31.031v32.375h29.867h29.797V921.41
			c0.058-0.827,0.105-1.656,0.105-2.5c0-14.474-8.773-26.697-20.868-30.844v-3.062c12.095-4.147,20.903-16.37,20.903-30.844
			c0-0.844-0.082-1.673-0.14-2.5v-29.875h-29.797H517.052z"/>
		<path id="path3113" inkscape:connector-curvature="0" sodipodi:nodetypes="csscssc" stroke="#000000" stroke-width="0.7076" d="
			M528.223,858.692c0,0-0.258,17.905,18.05,18.153c18.308,0.248,19.082-13.446,19.34-17.409c0.258-3.963,0.258-9.413,0.258-9.413
			s-5.995,3.592-10.927,5.202s-11.636-1.734-15.633-1.734C529.195,853.49,528.223,858.692,528.223,858.692L528.223,858.692z"/>
		<path id="rect3115" inkscape:connector-curvature="0" sodipodi:nodetypes="ccccc" d="M528.452,926.09
			c16.592,7.09,34.371-7.297,37.19,0v18.351h-37.19V926.09z"/>
	</g>
	<g id="g3015" transform="translate(-197.6834,0)">
		<rect id="rect3133" x="662.039" y="429.218" width="165.16" height="165.714"/>
		<path id="rect3135" inkscape:connector-curvature="0" fill="#FFFFFF" d="M799.139,448.128l-21.344,12.625h-95.312v0.25h-0.25
			v83.844h0.25v0.125h95.469l12.406-72.562l17.156-10.156L799.139,448.128z M695.389,478.941h79.781l-2.781,16.406h-77V478.941z
			 M695.233,513.035h74.25l-2.781,16.406h-71.469V513.035z M697.639,546.972c-8.508,0-15.406,6.898-15.406,15.406
			c0,8.508,6.898,15.406,15.406,15.406c8.508,0,15.406-6.898,15.406-15.406C713.046,553.871,706.147,546.972,697.639,546.972z
			 M772.389,546.972c-8.508,0-15.406,6.898-15.406,15.406c0,8.508,6.898,15.406,15.406,15.406c8.508,0,15.406-6.898,15.406-15.406
			C787.796,553.871,780.897,546.972,772.389,546.972z"/>
	</g>
	<g>
		<rect id="rect3021" x="464.103" y="618.718" width="165.16" height="165.714"/>
		<polygon id="rect3023" fill="#FFFFFF" points="564.592,672.164 576.13,683.703 496.088,767.794 484.55,756.255 		"/>
		
			<rect id="rect3028" x="544.667" y="666.628" transform="matrix(-0.7071 -0.7071 0.7071 -0.7071 493.8266 1560.8057)" fill="#FFFFFF" width="51" height="23"/>
		<path id="rect3254" fill="#FFFFFF" d="M557.076,639.758L557.076,639.758c1.953,1.953,1.953,5.118,0,7.071l-18.208,18.208
			c-1.953,1.953-5.118,1.953-7.071,0l0,0c-1.953-1.953-1.953-5.118,0-7.071l18.208-18.208
			C551.957,637.805,555.123,637.805,557.076,639.758z"/>
	</g>
</g>
<path id="rect3254_1_" fill="#FFFFFF" d="M608.367,690.998L608.367,690.998c1.953,1.953,1.953,5.118,0,7.071l-18.208,18.208
	c-1.953,1.953-5.118,1.953-7.071,0l0,0c-1.953-1.953-1.953-5.118,0-7.071l18.208-18.208
	C603.248,689.045,606.414,689.045,608.367,690.998z"/>
<rect x="464.103" y="803.227" width="165.16" height="165.714"/>
<rect x="591.518" y="878.675" transform="matrix(0.7071 0.7071 -0.7071 0.7071 805.4501 -160.7544)" fill="#FFFFFF" width="10.51" height="26.425"/>
<g>
	<g>
		<g>
			<path fill="#FFFFFF" d="M456.094,949.057c-0.974,0.917-1.942,1.829-2.906,2.737h2.906V949.057z"/>
			<path fill="#FFFFFF" d="M590.518,875.809l-2.654-11.572l-33.656-33.656c0,0-9.122-7.964-26.541-8.281
				c-17.517-0.319-32.274,10.616-32.274,10.616c24.63,0.425,34.442,5.819,43.111,14.646c6.93,7.057,11.572,12.633,7.85,16.356
				c-1.603,1.603-30.349,28.708-61.804,58.339v29.536h0.306l78.697-74.498l6.476,6.476l10.935,1.592l2.751,12.15l18.685-18.685
				L590.518,875.809z"/>
			<path fill="#FFFFFF" d="M417.531,985.362c-9.77,9.196-15.937,15-15.937,15l14.053,16.947l33.748-31.947H417.531z"/>
		</g>
	</g>
</g>
</svg>
